<svg id="Layer_1" data-name="Layer 1" xmlns="http://www.w3.org/2000/svg" viewBox="0 0 934 508.3"><defs><style>.cls-1,.cls-5{font-size:12px;font-family:ArialMT, Arial;}.cls-2,.cls-7,.cls-9{fill:none;}.cls-3{fill:#ec8b5e;stroke:#bdccd4;}.cls-10,.cls-3,.cls-7,.cls-9{stroke-miterlimit:10;}.cls-4,.cls-5,.cls-6,.cls-7,.cls-8,.cls-9{isolation:isolate;}.cls-6,.cls-7{font-size:71.97px;}.cls-6{fill:#8aaae5;}.cls-6,.cls-7,.cls-8,.cls-9{font-family:Arial-Black, Arial Black;font-weight:800;}.cls-10,.cls-7,.cls-9{stroke:#000;}.cls-8,.cls-9{font-size:29.29px;}.cls-10,.cls-8{fill:#f96167;}</style></defs><title>etherialogo</title><text class="cls-1" transform="translate(0 10.3)"> </text><polygon class="cls-2" points="663.83 321.97 702.17 321.97 702.17 321.97 663.83 321.97"/><polygon class="cls-2" points="679.25 321.97 686.75 321.97 686.75 321.97 679.25 321.97"/><path class="cls-3" d="M446.34,248H29.66A29.66,29.66,0,0,1,0,218.34V29.66A29.66,29.66,0,0,1,29.66,0H448a28,28,0,0,1,28,28V218.34A29.66,29.66,0,0,1,446.34,248Z" transform="translate(457.5 259.8)"/><g class="cls-4"><text class="cls-5" transform="translate(553.73 387.54) rotate(-23.11)"> </text><text class="cls-6" transform="matrix(0.95, -0.32, 0.32, 0.95, 556.48, 385.37)">E</text><text class="cls-7" transform="matrix(0.95, -0.32, 0.32, 0.95, 556.48, 385.37)">E</text><text class="cls-6" transform="translate(605.88 369.18) rotate(-12.12)">t</text><text class="cls-7" transform="translate(605.88 369.18) rotate(-12.12)">t</text><text class="cls-6" transform="matrix(0.99, -0.1, 0.1, 0.99, 637.09, 362.03)">h</text><text class="cls-7" transform="matrix(0.99, -0.1, 0.1, 0.99, 637.09, 362.03)">h</text><text class="cls-6" transform="translate(684.92 357.22) rotate(1.92)">e</text><text class="cls-7" transform="translate(684.92 357.22) rotate(1.92)">e</text><text class="cls-6" transform="translate(732.9 359.28) rotate(8.26)">r</text><text class="cls-7" transform="translate(732.9 359.28) rotate(8.26)">r</text><text class="cls-6" transform="translate(764.5 364.02) rotate(12.68)">i</text><text class="cls-7" transform="translate(764.5 364.02) rotate(12.68)">i</text><text class="cls-6" transform="matrix(0.95, 0.31, -0.31, 0.95, 788.07, 368.72)">a</text><text class="cls-7" transform="matrix(0.95, 0.31, -0.31, 0.95, 788.07, 368.72)">a</text><text class="cls-1" transform="translate(833.36 384.58) rotate(22.4)"> </text></g><text class="cls-8" transform="translate(635.14 404.32) scale(0.79 1)">est. 2020</text><text class="cls-9" transform="translate(635.14 404.32) scale(0.79 1)">est. 2020</text><rect class="cls-10" x="597.5" y="422.8" width="196" height="21"/></svg>