<?xml version="1.0" encoding="utf-8"?>
<!-- Generator: Adobe Illustrator 23.1.1, SVG Export Plug-In . SVG Version: 6.00 Build 0)  -->
<svg version="1.1" id="Layer_1" xmlns="http://www.w3.org/2000/svg" xmlns:xlink="http://www.w3.org/1999/xlink" x="0px" y="0px"
	 viewBox="0 0 1366 768" style="enable-background:new 0 0 1366 768;" xml:space="preserve">
<style type="text/css">
	.st0{fill:none;}
	.st1{fill:#EC8B5E;stroke:#BDCCD4;stroke-miterlimit:10;}
	.st2{fill:#F96167;stroke:#000000;stroke-miterlimit:10;}
	.st3{font-family:'Arial-Black';}
	.st4{font-size:29.2905px;}
</style>
<g>
	<polygon class="st0" points="663.83,311.67 702.17,311.67 702.17,311.67 663.83,311.67 	"/>
	<polygon class="st0" points="679.25,311.67 686.75,311.67 686.75,311.67 679.25,311.67 	"/>
	<path class="st1" d="M903.84,497.5H487.16c-16.38,0-29.66-13.28-29.66-29.66V279.16c0-16.38,13.28-29.66,29.66-29.66h418.31
		c15.48,0,28.03,12.55,28.03,28.03v190.31C933.5,484.22,920.22,497.5,903.84,497.5z"/>
	<path id="SVGID_x5F_1_x5F_" class="st0" d="M369.33,835.48c-81.93-181.97-0.77-395.94,181.28-477.9s396.05-0.89,477.98,181.08"/>
	<text>	<textPath  xlink:href="#SVGID_x5F_1_x5F_" startOffset="50.4907%">
<tspan  class="st3" style="fill:#8AAAE5;stroke:#000000;stroke-miterlimit:10; font-size:71.9701px;">Etheria</tspan>	</textPath>
</text>
	<text transform="matrix(0.7949 0 0 1 635.1409 394.0176)" class="st2 st3 st4">est. 2020</text>
	<rect x="597.5" y="412.5" class="st2" width="196" height="21"/>
</g>
</svg>
