<?xml version="1.0" encoding="utf-8"?>
<!-- Generator: Adobe Illustrator 23.1.1, SVG Export Plug-In . SVG Version: 6.00 Build 0)  -->
<svg version="1.1" id="Layer_1" xmlns="http://www.w3.org/2000/svg" xmlns:xlink="http://www.w3.org/1999/xlink" x="0px" y="0px"
	 viewBox="0 0 477 249" style="enable-background:new 0 0 477 249;" xml:space="preserve">
<style type="text/css">
	.st0{fill:#EC8B5E;stroke:#BDCCD4;stroke-miterlimit:10;}
	.st1{fill:#8AAAE5;stroke:#000000;stroke-miterlimit:10;}
	.st2{fill:#F96167;}
	.st3{font-family:'Arial-BoldMT';}
	.st4{font-size:29.29px;}
	.st5{fill:none;stroke:#000000;stroke-miterlimit:10;}
	.st6{fill:#F96167;stroke:#000000;stroke-miterlimit:10;}
</style>
<title>Etheria logo</title>
<path class="st0" d="M30.2,0.5h418.3c15.5,0,28,12.5,28,28v190.3c0,16.4-13.3,29.7-29.7,29.7l0,0H30.2c-16.4,0-29.7-13.3-29.7-29.7
	c0,0,0,0,0,0V30.2C0.5,13.8,13.8,0.5,30.2,0.5C30.2,0.5,30.2,0.5,30.2,0.5z"/>
<path class="st1" d="M95.1,79.3l40.3-14.1l3.6,10.4l-25.2,8.8l2.7,7.7l23.4-8.2l3.5,9.9L120,102l3.3,9.6l26-9.1l3.9,11l-41,14.3
	L95.1,79.3z"/>
<path class="st1" d="M163.4,58.8l3.1,13.9l7.7-1.7l2.3,10.2l-7.7,1.7l2.9,12.9c0.1,1.1,0.5,2.1,1.1,3c0.7,0.7,1.7,0.9,2.7,0.6
	c1.5-0.4,2.9-1,4.1-1.9l3.2,9.4c-3,1.4-6.2,2.5-9.4,3.3c-3.5,0.8-6.1,0.9-8,0.4c-1.8-0.5-3.5-1.7-4.6-3.2c-1.2-1.6-2.2-4.5-3.1-8.6
	L154.8,86l-5.1,1.2L147.4,77l5.1-1.2l-1.5-6.7L163.4,58.8z"/>
<path class="st1" d="M180.6,55.2l14.2-1.5l2,18.9c1.4-2,3.2-3.6,5.3-4.9c2-1.1,4.3-1.8,6.6-2c3.9-0.4,7,0.4,9.5,2.5
	c2.5,2.1,4,5.6,4.5,10.5l2.6,23.6l-14.3,1.6l-2.2-20.4c-0.3-2.3-0.9-3.9-1.8-4.8c-1.1-0.9-2.4-1.2-3.8-1c-1.6,0.1-3.1,1-4,2.4
	c-0.9,1.4-1.2,3.8-0.8,7.2l1.9,17.8l-14.2,1.6L180.6,55.2z"/>
<path class="st1" d="M272.4,87.9l-28.7-0.7c0,1.9,0.6,3.7,1.7,5.2c1.3,1.6,3.3,2.6,5.4,2.6c1.4,0,2.8-0.3,4-0.9
	c1-0.6,1.9-1.4,2.6-2.3l14.1,1.7c-1.9,3.3-4.6,6.1-8,7.9c-3.1,1.5-7.5,2.2-13.2,2.1c-4.9-0.1-8.8-0.9-11.6-2.4
	c-2.9-1.6-5.3-3.9-6.9-6.8c-1.8-3.3-2.7-7-2.5-10.8c0.2-5.8,2.2-10.5,6-14s9.1-5.2,15.6-5c5.3,0.1,9.5,1,12.6,2.7
	c3,1.6,5.4,4.1,6.9,7.2c1.5,3.1,2.2,7.1,2.1,12L272.4,87.9z M258,80.6c-0.2-2.8-0.9-4.8-2.1-6c-2.8-2.7-7.2-2.5-9.9,0.3
	c-0.1,0.1-0.2,0.2-0.3,0.4c-1,1.5-1.7,3.2-1.8,5L258,80.6z"/>
<path class="st1" d="M280.9,66.9l13.3,1.8l-0.8,6c1.2-1.9,2.7-3.6,4.6-4.8c1.6-0.8,3.5-1.1,5.2-0.8c2.4,0.4,4.7,1.4,6.6,2.9
	l-5.8,9.5c-1.2-0.8-2.5-1.3-3.8-1.6c-1.7-0.3-3.5,0.4-4.6,1.7c-1.7,2-3,5.9-3.9,11.8l-1.6,12.4l-14.2-1.9L280.9,66.9z"/>
<path class="st1" d="M313.8,71.9l14,3l-7.9,36.5l-14-3L313.8,71.9z M316.8,58.1l14,3l-2.1,9.5l-14-3L316.8,58.1z"/>
<path class="st1" d="M346.6,92.6L334,87c1-1.8,2.3-3.4,3.9-4.7c1.5-1.1,3.3-1.8,5.1-2.1c1.9-0.3,3.8-0.3,5.7,0.1
	c2.5,0.4,4.9,0.9,7.3,1.7c3.3,1,6.5,2.3,9.6,3.9c2.2,1.1,4,2.8,5.3,4.9c0.9,1.6,1.4,3.3,1.4,5.2c0.1,1.9-0.1,3.8-0.7,5.6l-5.1,15.7
	c-0.5,1.3-0.8,2.6-1,4c-0.1,1.4,0,2.7,0.2,4.1l-12.8-4.1c-0.2-0.8-0.3-1.6-0.3-2.4c0-0.8,0.1-1.6,0.3-2.4c-2,1.1-4.2,1.7-6.5,2
	c-3,0.2-6-0.3-8.9-1.2c-4.2-1.4-7.1-3.4-8.7-6.1c-1.6-2.5-1.9-5.5-1-8.3c0.7-2.5,2.3-4.6,4.5-5.9c2.1-1.2,5.5-1.6,10-1
	c5.4,0.6,9,1,10.6,1c1.8,0.1,3.6,0.1,5.3-0.1c0.5-1.7,0.6-3,0.1-3.8s-1.6-1.6-3.3-2.2c-1.7-0.7-3.6-0.9-5.4-0.6
	C348.4,90.6,347.3,91.4,346.6,92.6z M356.1,103.6c-2.1,0.1-4.2,0-6.4-0.1c-3-0.2-5,0-6,0.5c-0.9,0.4-1.6,1.2-1.9,2.1
	c-0.4,1-0.3,2.1,0.3,3c0.7,1,1.8,1.8,3,2.1c1.5,0.5,3.1,0.6,4.6,0.3c1.4-0.2,2.6-0.9,3.6-1.8c1-1.1,1.8-2.4,2.1-3.9L356.1,103.6z"/>
<text transform="matrix(0.79 0 0 1 178.1401 145.0201)" class="st2 st3 st4">est. 2020</text>
<text transform="matrix(0.79 0 0 1 178.1401 145.0201)" class="st5 st3 st4">est. 2020</text>
<rect x="140.5" y="163.5" class="st6" width="196" height="21"/>
</svg>
