<svg id="Layer_1" data-name="Layer 1" xmlns="http://www.w3.org/2000/svg" viewBox="0 0 477 249"><defs><style>.cls-1{fill:#ec8b5e;stroke:#bdccd4;}.cls-1,.cls-2,.cls-3,.cls-4{stroke-miterlimit:10;}.cls-2{fill:#8aaae5;}.cls-2,.cls-3,.cls-4{stroke:#000;}.cls-3{font-size:29.29px;font-family:Arial-Black, Arial Black;font-weight:800;}.cls-3,.cls-4{fill:#f96167;}</style></defs><title>Etheria logo</title><text/><text/><path class="cls-1" d="M30.16.5H448.47a28,28,0,0,1,28,28V218.84a29.66,29.66,0,0,1-29.66,29.66H30.16A29.66,29.66,0,0,1,.5,218.84V30.16A29.66,29.66,0,0,1,30.16.5Z"/><path class="cls-2" d="M95.11,79.26l40.3-14.08L139,75.57l-25.22,8.81,2.7,7.73,23.4-8.18,3.46,9.92L120,102l3.34,9.58,26-9.06,3.85,11-41,14.33Z" transform="translate(0 0)"/><path class="cls-2" d="M163.4,58.85l3.1,13.86L174.18,71l2.29,10.22-7.69,1.71,2.89,12.91a7.05,7.05,0,0,0,1.13,3,2.64,2.64,0,0,0,2.66.63,15.67,15.67,0,0,0,4.13-1.86l3.18,9.41a47,47,0,0,1-9.42,3.29c-3.48.78-6.14.9-8,.38a8.36,8.36,0,0,1-4.56-3.24Q159,105,157.65,98.86l-2.87-12.81-5.14,1.15L147.35,77l5.15-1.15L151,69.15Z" transform="translate(0 0)"/><path class="cls-2" d="M180.6,55.2l14.23-1.55,2,18.87a19.4,19.4,0,0,1,5.3-4.93,16.42,16.42,0,0,1,6.64-2q5.81-.63,9.52,2.53t4.52,10.47l2.57,23.58-14.29,1.56-2.22-20.4q-.39-3.49-1.84-4.81a4.64,4.64,0,0,0-3.79-1,5.21,5.21,0,0,0-4,2.41c-.93,1.43-1.21,3.82-.84,7.2l1.94,17.82-14.22,1.55Z" transform="translate(0 0)"/><path class="cls-2" d="M272.4,87.87l-28.67-.72a9.11,9.11,0,0,0,1.73,5.17,6.76,6.76,0,0,0,5.35,2.56,8.06,8.06,0,0,0,4-.95,9.31,9.31,0,0,0,2.56-2.29l14.06,1.65a20.13,20.13,0,0,1-8,7.87q-4.62,2.32-13.17,2.11-7.41-.18-11.61-2.38a17.2,17.2,0,0,1-6.88-6.82,20,20,0,0,1-2.53-10.77q.23-8.74,6-14t15.62-5q8,.2,12.59,2.74a16.31,16.31,0,0,1,6.89,7.2q2.31,4.67,2.12,12ZM258,80.65c-.22-2.77-.91-4.77-2.09-6a7,7,0,0,0-10.23.66,9.93,9.93,0,0,0-1.78,5Z" transform="translate(0 0)"/><path class="cls-2" d="M280.91,66.88l13.27,1.82-.83,6A14.6,14.6,0,0,1,298,69.88a8.39,8.39,0,0,1,5.24-.79,15.08,15.08,0,0,1,6.6,2.89l-5.77,9.49a11.31,11.31,0,0,0-3.83-1.58,5,5,0,0,0-4.64,1.7q-2.62,2.94-3.85,11.82L290.1,105.8l-14.25-1.94Z" transform="translate(0 0)"/><path class="cls-2" d="M313.76,71.94l14,3-7.9,36.47-14-3Zm3-13.87,14,3-2.06,9.52-14-3Z" transform="translate(0 0)"/><path class="cls-2" d="M346.57,92.56,334,87a15.24,15.24,0,0,1,3.86-4.68,12.19,12.19,0,0,1,5.1-2.1,17.68,17.68,0,0,1,5.67.05A44.15,44.15,0,0,1,355.89,82a60.29,60.29,0,0,1,9.62,3.86,13.35,13.35,0,0,1,5.26,4.86,10.57,10.57,0,0,1,1.37,5.15,16.28,16.28,0,0,1-.7,5.59l-5.06,15.69a19.49,19.49,0,0,0-.95,4,18.13,18.13,0,0,0,.22,4.08l-12.78-4.13a13.36,13.36,0,0,1-.33-2.41,14.53,14.53,0,0,1,.26-2.41,18.62,18.62,0,0,1-6.51,2,23.31,23.31,0,0,1-8.87-1.24q-6.36-2.06-8.7-6.06a9.8,9.8,0,0,1-1-8.32,10,10,0,0,1,4.53-5.89q3.21-1.84,10-1,8.16.94,10.64,1a48.21,48.21,0,0,0,5.34-.06c.54-1.68.57-3,.09-3.85s-1.58-1.62-3.32-2.18a9.94,9.94,0,0,0-5.36-.55A6.19,6.19,0,0,0,346.57,92.56Zm9.5,11c-2.09.07-4.24,0-6.43-.11-3-.16-5,0-6,.47a3.59,3.59,0,0,0-1.94,2.14,3.54,3.54,0,0,0,.27,3,5,5,0,0,0,3,2.08,8.92,8.92,0,0,0,4.58.27,7.07,7.07,0,0,0,3.65-1.8,9.35,9.35,0,0,0,2.15-3.86Z" transform="translate(0 0)"/><text class="cls-3" transform="translate(178.14 145.02) scale(0.79 1)">est. 2020</text><rect class="cls-4" x="140.5" y="163.5" width="196" height="21"/></svg>